<svg width="24" height="21" viewBox="0 0 24 21" fill="none" xmlns="http://www.w3.org/2000/svg">
<g id="Group 1707480373">
<path id="Rectangle 34625099" d="M21.4277 16.9282C21.4277 17.6382 20.8521 18.2139 20.142 18.2139L3.85631 18.2139C3.14623 18.2139 2.57059 17.6382 2.57059 16.9282L2.57059 4.07101C2.57059 3.36093 3.14623 2.78529 3.85631 2.78529L20.142 2.7853C20.8521 2.7853 21.4277 3.36093 21.4277 4.07101L21.4277 16.9282Z" fill="#00B26B"/>
<path id="Rectangle 34625099 (Stroke)" fill-rule="evenodd" clip-rule="evenodd" d="M20.1429 20.7852L3.85714 20.7852C1.7269 20.7852 2.05832e-06 19.0583 2.24455e-06 16.928L3.36856e-06 4.07087C3.55479e-06 1.94063 1.72691 0.213726 3.85715 0.213726L20.1429 0.213728C22.2731 0.213728 24 1.94063 24 4.07087L24 16.928C24 19.0583 22.2731 20.7852 20.1429 20.7852ZM20.1429 18.2137C20.8529 18.2137 21.4286 17.6381 21.4286 16.928L21.4286 4.07087C21.4286 3.36079 20.8529 2.78516 20.1429 2.78516L3.85714 2.78515C3.14707 2.78515 2.57143 3.36079 2.57143 4.07087L2.57143 16.928C2.57143 17.6381 3.14706 18.2137 3.85714 18.2137L20.1429 18.2137Z" fill="#FFCB57"/>
<path id="Rectangle 34625280" d="M18.8574 17.7853C18.8574 18.022 18.6655 18.2139 18.4289 18.2139L14.1431 18.2139C13.9064 18.2139 13.7146 18.022 13.7146 17.7853L13.7146 16.071C13.7146 15.8343 13.9064 15.6424 14.1431 15.6424L18.4289 15.6424C18.6655 15.6424 18.8574 15.8343 18.8574 16.071L18.8574 17.7853Z" fill="#F1FAF5"/>
</g>
</svg>
