<svg width="17" height="19" viewBox="0 0 17 19" fill="none" xmlns="http://www.w3.org/2000/svg">
<g id="Group 1707480558">
<rect id="Rectangle 34625208" y="0.5" width="17" height="18" rx="1.82609" fill="#B1CAFB"/>
<path id="Rectangle 34625209" d="M0 2.32609C0 1.31757 0.817567 0.5 1.82609 0.5H3V18.5H1.82609C0.817567 18.5 0 17.6824 0 16.6739V2.32609Z" fill="#4580F7"/>
<path id="Vector 1022 (Stroke)" fill-rule="evenodd" clip-rule="evenodd" d="M5 4.28487C5 3.8514 5.3514 3.5 5.78487 3.5L13.7092 3.5C14.1427 3.5 14.4941 3.8514 14.4941 4.28487C14.4941 4.71834 14.1427 5.06974 13.7092 5.06974L5.78487 5.06974C5.3514 5.06974 5 4.71834 5 4.28487Z" fill="white"/>
<path id="Vector 1022 (Stroke)_2" fill-rule="evenodd" clip-rule="evenodd" d="M5 7.28487C5 6.8514 5.3514 6.5 5.78487 6.5L13.7092 6.5C14.1427 6.5 14.4941 6.8514 14.4941 7.28487C14.4941 7.71834 14.1427 8.06974 13.7092 8.06974L5.78487 8.06974C5.3514 8.06974 5 7.71834 5 7.28487Z" fill="white"/>
<path id="Vector 1022 (Stroke)_3" fill-rule="evenodd" clip-rule="evenodd" d="M5 10.2849C5 9.8514 5.3514 9.5 5.78487 9.5L11.7092 9.5C12.1427 9.5 12.4941 9.8514 12.4941 10.2849C12.4941 10.7183 12.1427 11.0697 11.7092 11.0697L5.78487 11.0697C5.3514 11.0697 5 10.7183 5 10.2849Z" fill="white"/>
</g>
</svg>
