<svg width="25" height="24" viewBox="0 0 25 24" fill="none" xmlns="http://www.w3.org/2000/svg">
<path fill-rule="evenodd" clip-rule="evenodd" d="M12.5 22.2167C19.1274 22.2167 24.5 17.2433 24.5 11.1083C24.5 4.97337 19.1274 0 12.5 0C5.87258 0 0.5 4.97337 0.5 11.1083C0.5 13.6123 1.39495 15.9227 2.9049 17.7805C2.99235 17.888 3.03432 18.026 3.01794 18.1636L2.46973 22.7715C2.3753 23.5652 3.20116 24.1451 3.91259 23.7847L8.16445 21.6305C8.28462 21.5696 8.42411 21.5602 8.55233 21.6016C9.78863 22.0001 11.117 22.2167 12.5 22.2167Z" fill="#A3E0C8"/>
<circle cx="7.52746" cy="10.8863" r="1.45714" fill="#00915C"/>
<circle cx="12.67" cy="10.8863" r="1.45714" fill="#00915C"/>
<circle cx="17.8126" cy="10.8863" r="1.45714" fill="#00915C"/>
</svg>
