<svg width="33" height="32" viewBox="0 0 33 32" fill="none" xmlns="http://www.w3.org/2000/svg">
<path d="M22.5496 14.8889C21.3827 14.8889 20.2635 14.4206 19.4383 13.5871C18.6132 12.7536 18.1496 11.6232 18.1496 10.4444C18.1496 9.2657 18.6132 8.13524 19.4383 7.30175C20.2635 6.46825 21.3827 6 22.5496 6C23.7166 6 24.8357 6.46825 25.6609 7.30175C26.486 8.13524 26.9496 9.2657 26.9496 10.4444C26.9496 11.6232 26.486 12.7536 25.6609 13.5871C24.8357 14.4206 23.7166 14.8889 22.5496 14.8889ZM19.5996 26C18.495 26 17.5996 25.1046 17.5996 24V21C17.5996 20.3434 17.7276 19.6932 17.9764 19.0866C18.2252 18.48 18.5898 17.9288 19.0494 17.4645C19.5091 17.0002 20.0548 16.6319 20.6553 16.3806C21.2559 16.1293 21.8996 16 22.5496 16C23.1997 16 23.8433 16.1293 24.4439 16.3806C25.0445 16.6319 25.5901 17.0002 26.0498 17.4645C26.5094 17.9288 26.8741 18.48 27.1228 19.0866C27.3716 19.6932 27.4996 20.3434 27.4996 21V24C27.4996 25.1046 26.6042 26 25.4996 26H19.5996Z" fill="#FFA627"/>
<path d="M7.33873 13.5871C6.51357 12.7536 6.05 11.6232 6.05 10.4444C6.05 9.2657 6.51357 8.13524 7.33873 7.30175C8.16389 6.46825 9.28305 6 10.45 6C11.617 6 12.7361 6.46825 13.5613 7.30175C14.3864 8.13524 14.85 9.2657 14.85 10.4444C14.85 11.6232 14.3864 12.7536 13.5613 13.5871C12.7361 14.4206 11.617 14.8889 10.45 14.8889C9.28305 14.8889 8.16389 14.4206 7.33873 13.5871Z" fill="#FECA57"/>
<path d="M5.5 21V24C5.5 25.1046 6.39543 26 7.5 26H13.4C14.5046 26 15.4 25.1046 15.4 24V21C15.4 20.3434 15.272 19.6932 15.0232 19.0866C14.7744 18.48 14.4098 17.9288 13.9502 17.4645C13.4905 17.0002 12.9448 16.6319 12.3443 16.3806C11.7437 16.1293 11.1 16 10.45 16C9.79996 16 9.15628 16.1293 8.55572 16.3806C7.95516 16.6319 7.40947 17.0002 6.94982 17.4645C6.49017 17.9288 6.12556 18.48 5.8768 19.0866C5.62804 19.6932 5.5 20.3434 5.5 21Z" fill="#FECA57"/>
</svg>
