<svg width="30" height="24" viewBox="0 0 30 24" fill="none" xmlns="http://www.w3.org/2000/svg">
<g id="Group 1707480559">
<mask id="mask0_2009_3931" style="mask-type:alpha" maskUnits="userSpaceOnUse" x="1" y="0" width="28" height="23">
<path id="Vector 1016" d="M19.5352 0.5H10.4624C9.22042 0.5 8.02874 0.990618 7.14678 1.86504L2.49148 6.48055C1.58845 7.37586 1.55944 8.82642 2.42595 9.75712L13.2754 21.4103C14.2066 22.4105 15.7909 22.4105 16.7221 21.4103L27.5716 9.75712C28.4381 8.82642 28.4091 7.37586 27.5061 6.48055L22.8508 1.86504C21.9688 0.990617 20.7771 0.5 19.5352 0.5Z" fill="black"/>
</mask>
<g mask="url(#mask0_2009_3931)">
<path id="Vector 1022" d="M19.5354 0.5H10.4626C9.22068 0.5 8.02899 0.990618 7.14703 1.86504L2.49174 6.48055C1.58871 7.37586 1.5597 8.82642 2.42621 9.75712L13.2757 21.4103C14.2069 22.4105 15.7912 22.4105 16.7224 21.4103L27.5718 9.75712C28.4384 8.82642 28.4093 7.37586 27.5063 6.48055L22.851 1.86504C21.9691 0.990617 20.7774 0.5 19.5354 0.5Z" fill="#9ABDD6"/>
<path id="Vector 1021" d="M17.2176 0.5H12.7823C11.9303 0.5 11.1447 0.960301 10.7282 1.7036L7.7712 6.98074C7.3842 7.6714 7.37018 8.51031 7.73391 9.21351L14.3028 21.9135C14.5955 22.4792 15.4045 22.4792 15.6971 21.9135L22.2661 9.21352C22.6298 8.51032 22.6158 7.6714 22.2288 6.98074L19.2717 1.7036C18.8552 0.960302 18.0697 0.5 17.2176 0.5Z" fill="#456886"/>
<path id="Vector 1022 (Stroke)" fill-rule="evenodd" clip-rule="evenodd" d="M11.0762 8.34932C11.0762 7.91585 11.4276 7.56445 11.861 7.56445L15.7854 7.56445C16.2189 7.56445 16.5703 7.91585 16.5703 8.34932C16.5703 8.7828 16.2189 9.13419 15.7854 9.13419L11.861 9.13419C11.4276 9.13419 11.0762 8.7828 11.0762 8.34932Z" fill="white"/>
<path id="Vector 1023 (Stroke)" fill-rule="evenodd" clip-rule="evenodd" d="M18.1387 8.34932C18.1387 7.91585 18.4901 7.56445 18.9235 7.56445H19.7084C20.1419 7.56445 20.4933 7.91585 20.4933 8.34932C20.4933 8.7828 20.1419 9.13419 19.7084 9.13419H18.9235C18.4901 9.13419 18.1387 8.7828 18.1387 8.34932Z" fill="white"/>
</g>
</g>
</svg>
