<svg width="24" height="24" viewBox="0 0 24 24" fill="none" xmlns="http://www.w3.org/2000/svg">
<g id="mi:delete">
<path id="Subtract" d="M21.0004 6.30002H16.7004V4.00002C16.7004 3.54916 16.5213 3.11675 16.2025 2.79794C15.8837 2.47913 15.4513 2.30002 15.0004 2.30002H9.00039C8.54952 2.30002 8.11712 2.47913 7.79831 2.79794C7.4795 3.11675 7.30039 3.54916 7.30039 4.00002V6.30002H3.00039C2.81474 6.30002 2.63669 6.37377 2.50542 6.50505C2.37414 6.63633 2.30039 6.81437 2.30039 7.00002C2.30039 7.18568 2.37414 7.36372 2.50542 7.495C2.63669 7.62627 2.81474 7.70002 3.00039 7.70002H4.34978L5.23463 20.1207C5.26516 20.5496 5.45708 20.951 5.77174 21.2441C6.08639 21.5371 6.5004 21.7 6.93039 21.7H17.0694C17.4994 21.7 17.9134 21.5371 18.228 21.2441C18.5427 20.951 18.7346 20.5496 18.7651 20.1207L19.6521 7.70002H21.0004C21.186 7.70002 21.3641 7.62627 21.4954 7.495C21.6266 7.36372 21.7004 7.18568 21.7004 7.00002C21.7004 6.81437 21.6266 6.63632 21.4954 6.50505C21.3641 6.37377 21.186 6.30002 21.0004 6.30002ZM8.70039 6.30002V3.70002H15.3004V6.30002H8.70039ZM6.65205 20.3L5.7522 7.70002H18.2496L17.3497 20.3H6.65205ZM10.4954 10.505C10.3641 10.3738 10.186 10.3 10.0004 10.3C9.81474 10.3 9.63669 10.3738 9.50542 10.505C9.37414 10.6363 9.30039 10.8144 9.30039 11V17C9.30039 17.1857 9.37414 17.3637 9.50542 17.495C9.63669 17.6263 9.81474 17.7 10.0004 17.7C10.186 17.7 10.3641 17.6263 10.4954 17.495C10.6266 17.3637 10.7004 17.1857 10.7004 17V11C10.7004 10.8144 10.6266 10.6363 10.4954 10.505ZM14.4954 10.505C14.3641 10.3738 14.186 10.3 14.0004 10.3C13.8147 10.3 13.6367 10.3738 13.5054 10.505C13.3741 10.6363 13.3004 10.8144 13.3004 11V17C13.3004 17.1857 13.3741 17.3637 13.5054 17.495C13.6367 17.6263 13.8147 17.7 14.0004 17.7C14.186 17.7 14.3641 17.6263 14.4954 17.495C14.6266 17.3637 14.7004 17.1857 14.7004 17V11C14.7004 10.8144 14.6266 10.6363 14.4954 10.505Z" fill="white" stroke="white" stroke-width="0.2"/>
</g>
</svg>
