<svg width="24" height="24" viewBox="0 0 24 24" fill="none" xmlns="http://www.w3.org/2000/svg">
<path fill-rule="evenodd" clip-rule="evenodd" d="M20.1305 3.15961C19.568 2.5972 18.805 2.28125 18.0095 2.28125C17.214 2.28125 16.4511 2.5972 15.8885 3.15961C15.4985 3.55021 15.4978 4.18389 15.8881 4.57422L19.425 8.11111C19.8151 8.50122 20.4477 8.50099 20.8375 8.11061C21.1162 7.83203 21.3372 7.50129 21.488 7.13728C21.6388 6.77327 21.7164 6.38312 21.7164 5.98911C21.7164 5.5951 21.6388 5.20495 21.488 4.84094C21.3372 4.47693 21.1162 4.14619 20.8375 3.86761L20.1305 3.15961ZM18.0094 10.9387C18.4 10.5482 18.4 9.91503 18.0094 9.5245L14.4737 5.98876C14.0831 5.59822 13.4499 5.59823 13.0594 5.98879L4.67654 14.3726C4.47762 14.5716 4.33866 14.8224 4.27554 15.0966L3.24654 19.5516C3.2082 19.717 3.21259 19.8894 3.25932 20.0526C3.30604 20.2159 3.39355 20.3645 3.5136 20.4846C3.63365 20.6046 3.78228 20.6921 3.9455 20.7388C4.10872 20.7856 4.28115 20.79 4.44654 20.7516L8.90254 19.7236C9.17634 19.6603 9.42686 19.5214 9.62554 19.3226L18.0094 10.9387Z" fill="white"/>
</svg>
