<svg width="24" height="24" viewBox="0 0 24 24" fill="none" xmlns="http://www.w3.org/2000/svg">
<g id="Group">
<path id="Vector" fill-rule="evenodd" clip-rule="evenodd" d="M20.1305 3.1601C19.568 2.59768 18.805 2.28174 18.0095 2.28174C17.214 2.28174 16.4511 2.59768 15.8885 3.1601C15.4985 3.5507 15.4978 4.18438 15.8881 4.5747L19.425 8.1116C19.8151 8.50171 20.4477 8.50148 20.8375 8.1111C21.1162 7.83252 21.3372 7.50178 21.488 7.13777C21.6388 6.77376 21.7164 6.38361 21.7164 5.9896C21.7164 5.59559 21.6388 5.20544 21.488 4.84143C21.3372 4.47742 21.1162 4.14668 20.8375 3.8681L20.1305 3.1601ZM18.0094 10.9392C18.4 10.5487 18.4 9.91552 18.0094 9.52499L14.4737 5.98924C14.0831 5.5987 13.4499 5.59872 13.0594 5.98928L4.67654 14.3731C4.47762 14.5721 4.33866 14.8229 4.27554 15.0971L3.24654 19.5521C3.2082 19.7175 3.21259 19.8899 3.25932 20.0531C3.30604 20.2164 3.39355 20.365 3.5136 20.485C3.63365 20.6051 3.78228 20.6926 3.9455 20.7393C4.10872 20.786 4.28115 20.7904 4.44654 20.7521L8.90254 19.7241C9.17634 19.6608 9.42686 19.5219 9.62554 19.3231L18.0094 10.9392Z" fill="white"/>
</g>
</svg>
