<svg width="26" height="22" viewBox="0 0 26 22" fill="none" xmlns="http://www.w3.org/2000/svg">
<g id="Group 1707480561">
<g id="Group 1707480062">
<path id="White" d="M19.4997 21.4991C21.2851 21.4991 22.7935 20.1898 23.8267 18.3112C24.8699 16.4147 25.4995 13.8286 25.4995 10.9995C25.4995 8.17041 24.8699 5.58438 23.8267 3.68783C22.7935 1.80928 21.2851 0.5 19.4997 0.5C17.7144 0.5 16.2059 1.80928 15.1727 3.68783C14.1296 5.58438 13.5 8.17041 13.5 10.9995C13.5 13.8286 14.1296 16.4147 15.1727 18.3112C16.2059 20.1898 17.7144 21.4991 19.4997 21.4991Z" fill="white" stroke="#E5E8EB"/>
<circle id="Black" cx="19.4999" cy="10.9989" r="2.99986" fill="#191F28"/>
<circle id="Black_2" cx="18.75" cy="9.74996" r="0.749964" fill="white"/>
</g>
<g id="Group 1707480063">
<path id="White_2" d="M6.49974 21.4991C8.28506 21.4991 9.79355 20.1898 10.8267 18.3112C11.8699 16.4147 12.4995 13.8286 12.4995 10.9995C12.4995 8.17041 11.8699 5.58438 10.8267 3.68783C9.79355 1.80928 8.28506 0.5 6.49974 0.5C4.71442 0.5 3.20593 1.80928 2.17273 3.68783C1.12963 5.58438 0.5 8.17041 0.5 10.9995C0.5 13.8286 1.12963 16.4147 2.17273 18.3112C3.20593 20.1898 4.71442 21.4991 6.49974 21.4991Z" fill="white" stroke="#E5E8EB"/>
<circle id="Black_3" cx="6.49986" cy="10.9989" r="2.99986" fill="#191F28"/>
<circle id="Black_4" cx="5.74996" cy="9.74996" r="0.749964" fill="white"/>
</g>
</g>
</svg>
