<svg width="24" height="24" viewBox="0 0 24 24" fill="none" xmlns="http://www.w3.org/2000/svg">
<path fill-rule="evenodd" clip-rule="evenodd" d="M3.13843 3.14039C3.49488 2.78393 4.07281 2.78393 4.42926 3.14039L20.8588 19.5699C21.2152 19.9263 21.2152 20.5043 20.8588 20.8607C20.5023 21.2172 19.9244 21.2172 19.5679 20.8607L3.13843 4.43121C2.78198 4.07476 2.78198 3.49684 3.13843 3.14039Z" fill="#B0B8C1"/>
<path fill-rule="evenodd" clip-rule="evenodd" d="M5.97546 6.73468C5.57385 7.03589 5.20601 7.35353 4.87103 7.67664C3.75215 8.763 2.82593 10.0315 2.13186 11.428C2.04509 11.6065 2 11.8024 2 12.0008C2 12.1992 2.04509 12.3951 2.13186 12.5735C2.82556 13.9703 3.75148 15.2392 4.87012 16.3259C6.46834 17.8639 8.82141 19.3033 11.9996 19.3033C14.0405 19.3033 15.7419 18.71 17.1201 17.8775L13.5203 14.2786C12.9935 14.6304 12.3611 14.7888 11.7307 14.7266C11.1003 14.6645 10.511 14.3857 10.0631 13.9378C9.61514 13.4899 9.33638 12.9006 9.27424 12.2702C9.21211 11.6398 9.37045 11.0073 9.7223 10.4806L5.97637 6.73377L5.97546 6.73468ZM19.9095 15.5044C20.6851 14.6158 21.3431 13.6311 21.8674 12.5745C21.9541 12.396 21.9992 12.2002 21.9992 12.0017C21.9992 11.8033 21.9541 11.6074 21.8674 11.429C21.1737 10.0321 20.2478 8.76332 19.1291 7.67664C17.5309 6.13866 15.1787 4.69925 11.9996 4.69925C11.1345 4.69706 10.2728 4.80845 9.43661 5.03058L19.9095 15.5044Z" fill="#B0B8C1"/>
</svg>
