<svg width="24" height="24" viewBox="0 0 24 24" fill="none" xmlns="http://www.w3.org/2000/svg">
<path d="M21.8661 11.5023C21.2263 10.3926 17.7077 4.82432 11.7301 5.00426C6.2023 5.14422 3.00358 10.0027 2.13392 11.5023C2.04619 11.6543 2 11.8267 2 12.0021C2 12.1776 2.04619 12.35 2.13392 12.502C2.76367 13.5916 6.13233 19 12.02 19H12.2699C17.7977 18.86 21.0064 14.0015 21.8661 12.502C21.9538 12.35 22 12.1776 22 12.0021C22 11.8267 21.9538 11.6543 21.8661 11.5023ZM12 15.5011C11.308 15.5011 10.6316 15.2959 10.0563 14.9114C9.48093 14.5269 9.03251 13.9805 8.76771 13.3411C8.5029 12.7018 8.43362 11.9983 8.56861 11.3195C8.70361 10.6408 9.03682 10.0173 9.52611 9.52801C10.0154 9.03868 10.6388 8.70544 11.3175 8.57043C11.9961 8.43542 12.6996 8.50471 13.3389 8.76954C13.9781 9.03436 14.5246 9.48283 14.909 10.0582C15.2934 10.6336 15.4986 11.3101 15.4986 12.0021C15.4986 12.9301 15.13 13.8201 14.4739 14.4763C13.8178 15.1324 12.9279 15.5011 12 15.5011Z" fill="#B0B8C1"/>
</svg>
