<svg width="24" height="24" viewBox="0 0 24 24" fill="none" xmlns="http://www.w3.org/2000/svg">
<path fill-rule="evenodd" clip-rule="evenodd" d="M12 22C17.5228 22 22 17.5228 22 12C22 6.47715 17.5228 2 12 2C6.47715 2 2 6.47715 2 12C2 17.5228 6.47715 22 12 22ZM13.2 7.8C13.2 8.46274 12.6627 9 12 9C11.3372 9 10.8 8.46274 10.8 7.8C10.8 7.13726 11.3372 6.6 12 6.6C12.6627 6.6 13.2 7.13726 13.2 7.8ZM13.2 16.8C13.2 17.4627 12.6627 18 12 18C11.3372 18 10.8 17.4627 10.8 16.8V11.2C10.8 10.5373 11.3372 10 12 10C12.6627 10 13.2 10.5373 13.2 11.2V16.8Z" fill="#ED615A"/>
</svg>
