<svg width="23" height="25" viewBox="0 0 23 25" fill="none" xmlns="http://www.w3.org/2000/svg">
<g id="Group 1707480044">
<path id="Intersect" fill-rule="evenodd" clip-rule="evenodd" d="M2.01393 20.0418C0.101525 17.1046 -0.297617 13.2617 0.839339 10.2852C1.35593 11.2995 2.15186 12.2603 3.0902 13.1892C3.11185 13.1627 3.1337 13.1362 3.15576 13.1099C4.71425 7.714 9.24799 1.96788 11.9079 0.697266C14.098 1.74344 17.5584 5.82365 19.5824 10.2443C20.4923 8.77195 21.4082 7.4122 22.1911 6.27107C23.144 11.5742 23.8478 17.79 20.719 21.2738C20.6797 21.3218 20.6397 21.3695 20.599 21.4168C18.3621 23.6154 15.2945 24.9716 11.9102 24.9716C7.86751 24.9716 4.2768 23.0364 2.01393 20.0418Z" fill="#ED615A"/>
<path id="Flame" d="M11.9122 11.0254C7.00654 14.2095 4.54298 22.3886 11.9122 22.3886C19.2815 22.3886 16.8179 14.2095 11.9122 11.0254Z" fill="#F8C6C3"/>
</g>
</svg>
