<svg width="25" height="25" viewBox="0 0 25 25" fill="none" xmlns="http://www.w3.org/2000/svg">
<g id="Group 1707480581">
<g id="Group 1707480580">
<path id="Vector" d="M13.9926 6.7959C17.2261 6.7959 18.8423 6.7959 20.0853 7.57786C20.3998 7.77526 20.6928 8.00705 20.9564 8.26813C22.0007 9.29971 22.3688 10.8751 23.1049 14.0246L24.4064 19.5938C24.6093 20.4644 24.4848 21.3791 24.0565 22.1637C23.6283 22.9483 22.9264 23.5479 22.0845 23.8482C21.2426 24.1485 20.3196 24.1285 19.4915 23.7921C18.6634 23.4556 17.9881 22.8262 17.5942 22.0238L17.4414 21.7105C17.1057 21.0252 16.5845 20.4478 15.937 20.0439C15.2895 19.64 14.5417 19.4258 13.7786 19.4257H11.2252C10.4615 19.425 9.71302 19.6386 9.06482 20.0423C8.41662 20.446 7.89475 21.0236 7.55859 21.7092L7.40576 22.0225C7.01272 22.8263 6.33737 23.4572 5.50868 23.7947C4.67999 24.1321 3.75603 24.1525 2.91326 23.852C2.07048 23.5514 1.36795 22.9509 0.939815 22.1653C0.511681 21.3796 0.387949 20.4637 0.592249 19.5926L1.89382 14.022C2.62994 10.8738 2.99799 9.29971 4.04231 8.26685C4.30663 8.00568 4.59874 7.77422 4.91342 7.57659C6.15768 6.7959 7.77382 6.7959 11.0074 6.7959H13.9926Z" fill="#05B36C"/>
<path id="Vector_2" d="M17.2759 1.70126C17.2759 1.44793 17.1753 1.20498 16.9962 1.02586C16.817 0.846727 16.5741 0.746094 16.3208 0.746094C16.0674 0.746094 15.8245 0.846727 15.6453 1.02586C15.4662 1.20498 15.3656 1.44793 15.3656 1.70126V2.97481C15.3656 3.05926 15.332 3.14024 15.2723 3.19995C15.2126 3.25966 15.1316 3.2932 15.0472 3.2932H13.7736C13.1825 3.2932 12.6157 3.52801 12.1977 3.94598C11.7797 4.36395 11.5449 4.93083 11.5449 5.52192V6.79548H13.4553V5.52192C13.4553 5.43748 13.4888 5.3565 13.5485 5.29679C13.6082 5.23708 13.6892 5.20353 13.7736 5.20353H15.0472C15.6383 5.20353 16.2052 4.96872 16.6231 4.55076C17.0411 4.13279 17.2759 3.56591 17.2759 2.97481V1.70126Z" fill="#05B36C"/>
</g>
<g id="Vector_3">
<path d="M17.221 12.7903C16.9821 13.0291 16.6582 13.1633 16.3204 13.1633C15.9827 13.1633 15.6587 13.0291 15.4199 12.7903C15.1811 12.5515 15.0469 12.2275 15.0469 11.8898C15.0469 11.552 15.1811 11.2281 15.4199 10.9892C15.6587 10.7504 15.9827 10.6162 16.3204 10.6162C16.6582 10.6162 16.9821 10.7504 17.221 10.9892C17.4598 11.2281 17.594 11.552 17.594 11.8898C17.594 12.2275 17.4598 12.5515 17.221 12.7903Z" fill="#004B30"/>
<path d="M19.7681 15.9742C20.0069 15.7354 20.1411 15.4114 20.1411 15.0737C20.1411 14.7359 20.0069 14.412 19.7681 14.1731C19.5292 13.9343 19.2053 13.8001 18.8675 13.8001C18.5298 13.8001 18.2058 13.9343 17.967 14.1731C17.7282 14.412 17.594 14.7359 17.594 15.0737C17.594 15.4114 17.7282 15.7354 17.967 15.9742C18.2058 16.213 18.5298 16.3472 18.8675 16.3472C19.2053 16.3472 19.5292 16.213 19.7681 15.9742Z" fill="#004B30"/>
</g>
<path id="Vector_4" d="M9.12659 10.1008C9.3312 10.3054 9.44615 10.5829 9.44615 10.8723V11.9633H10.5372C10.8265 11.9633 11.104 12.0783 11.3087 12.2829C11.5133 12.4875 11.6282 12.765 11.6282 13.0543C11.6282 13.3437 11.5133 13.6212 11.3087 13.8258C11.104 14.0304 10.8265 14.1454 10.5372 14.1454H9.44615V15.2364C9.44615 15.5258 9.3312 15.8033 9.12659 16.0079C8.92198 16.2125 8.64448 16.3274 8.35512 16.3274C8.06576 16.3274 7.78825 16.2125 7.58364 16.0079C7.37904 15.8033 7.26409 15.5258 7.26409 15.2364V14.1454H6.17306C5.8837 14.1454 5.60619 14.0304 5.40159 13.8258C5.19698 13.6212 5.08203 13.3437 5.08203 13.0543C5.08203 12.765 5.19698 12.4875 5.40159 12.2829C5.60619 12.0783 5.8837 11.9633 6.17306 11.9633H7.26409V10.8723C7.26409 10.5829 7.37904 10.3054 7.58364 10.1008C7.78825 9.8962 8.06576 9.78125 8.35512 9.78125C8.64448 9.78125 8.92198 9.8962 9.12659 10.1008Z" fill="#004B30"/>
</g>
</svg>
