<svg width="48" height="48" viewBox="0 0 48 48" fill="none" xmlns="http://www.w3.org/2000/svg">
<rect x="1" y="1" width="46" height="46" rx="23" fill="#F2F4F6"/>
<rect x="1" y="1" width="46" height="46" rx="23" stroke="#E5E8EB" stroke-width="2"/>
<path d="M34.8625 19.7962C34.4117 17.508 32.5976 15.6378 30.3108 15.1427C27.6941 14.5816 25.2754 15.7258 23.978 17.684C22.6917 15.7258 20.2839 14.5816 17.6562 15.1427C15.3804 15.6378 13.5553 17.508 13.1155 19.7962C12.6647 22.1285 13.5883 24.1307 14.9296 25.8799C15.823 27.0451 19.5506 30.7045 21.9403 33.0183C23.0909 34.1324 24.9091 34.1324 26.0597 33.0183C28.4494 30.7045 32.177 27.0451 33.0704 25.8799C34.4117 24.1307 35.3353 22.1285 34.8845 19.7962H34.8625Z" fill="#8B95A1"/>
</svg>
