<svg width="30" height="30" viewBox="0 0 30 30" fill="none" xmlns="http://www.w3.org/2000/svg">
<g id="streamline:instagram-solid">
<path id="Vector" fill-rule="evenodd" clip-rule="evenodd" d="M7.26359 1.68652C5.78406 1.68652 4.36509 2.27412 3.3187 3.32011C2.2723 4.3661 1.68416 5.78484 1.68359 7.26438V22.1444C1.68359 23.6243 2.27148 25.0436 3.31794 26.09C4.36439 27.1365 5.78369 27.7244 7.26359 27.7244H22.1436C23.6231 27.7238 25.0419 27.1357 26.0879 26.0893C27.1339 25.0429 27.7215 23.6239 27.7215 22.1444V7.26438C27.7209 5.78522 27.133 4.3668 26.0871 3.32087C25.0412 2.27494 23.6228 1.68709 22.1436 1.68652H7.26359ZM23.7486 7.27295C23.7486 7.69919 23.5793 8.10798 23.2779 8.40937C22.9765 8.71077 22.5677 8.8801 22.1415 8.8801C21.7152 8.8801 21.3064 8.71077 21.005 8.40937C20.7036 8.10798 20.5343 7.69919 20.5343 7.27295C20.5343 6.84671 20.7036 6.43793 21.005 6.13653C21.3064 5.83513 21.7152 5.66581 22.1415 5.66581C22.5677 5.66581 22.9765 5.83513 23.2779 6.13653C23.5793 6.43793 23.7486 6.84671 23.7486 7.27295ZM14.7057 10.2472C13.5236 10.2472 12.3899 10.7168 11.5541 11.5527C10.7182 12.3886 10.2486 13.5223 10.2486 14.7044C10.2486 15.8865 10.7182 17.0202 11.5541 17.8561C12.3899 18.6919 13.5236 19.1615 14.7057 19.1615C15.8878 19.1615 17.0215 18.6919 17.8574 17.8561C18.6933 17.0202 19.1629 15.8865 19.1629 14.7044C19.1629 13.5223 18.6933 12.3886 17.8574 11.5527C17.0215 10.7168 15.8878 10.2472 14.7057 10.2472ZM8.10359 14.7044C8.10359 12.954 8.79895 11.2752 10.0367 10.0375C11.2744 8.79974 12.9532 8.10438 14.7036 8.10438C16.454 8.10438 18.1328 8.79974 19.3705 10.0375C20.6082 11.2752 21.3036 12.954 21.3036 14.7044C21.3036 16.4548 20.6082 18.1335 19.3705 19.3713C18.1328 20.609 16.454 21.3044 14.7036 21.3044C12.9532 21.3044 11.2744 20.609 10.0367 19.3713C8.79895 18.1335 8.10359 16.4548 8.10359 14.7044Z" fill="#6B7684"/>
</g>
</svg>
