<svg width="100" height="100" viewBox="0 0 100 100" fill="none" xmlns="http://www.w3.org/2000/svg">
<circle cx="50" cy="50" r="49" fill="#E5E8EB" stroke="#D1D6DB" stroke-width="2"/>
<path fill-rule="evenodd" clip-rule="evenodd" d="M57.617 42.7388V38.1212C57.617 33.9771 54.2575 30.6176 50.1134 30.6176C45.9693 30.6176 42.6098 33.9771 42.6098 38.1212V42.7388C42.6098 46.8829 45.9693 50.2424 50.1134 50.2424C54.2575 50.2424 57.617 46.8829 57.617 42.7388ZM50.1134 26C43.419 26 37.9922 31.4269 37.9922 38.1212V42.7388C37.9922 49.4332 43.419 54.86 50.1134 54.86C56.8078 54.86 62.2346 49.4332 62.2346 42.7388V38.1212C62.2346 31.4269 56.8078 26 50.1134 26Z" fill="#8B95A1"/>
<rect x="29.332" y="42.6494" width="41.5584" height="28.86" rx="8" fill="#B0B8C1"/>
<circle cx="40.8058" cy="57.0793" r="1.7316" fill="#4E5968"/>
<circle cx="40.8058" cy="57.0793" r="1.7316" fill="black" fill-opacity="0.2"/>
<circle cx="47.1925" cy="57.0793" r="1.7316" fill="#4E5968"/>
<circle cx="47.1925" cy="57.0793" r="1.7316" fill="black" fill-opacity="0.2"/>
<circle cx="53.5754" cy="57.0793" r="1.7316" fill="#4E5968"/>
<circle cx="53.5754" cy="57.0793" r="1.7316" fill="black" fill-opacity="0.2"/>
<circle cx="59.9621" cy="57.0793" r="1.7316" fill="#4E5968"/>
<circle cx="59.9621" cy="57.0793" r="1.7316" fill="black" fill-opacity="0.2"/>
</svg>
