<svg xmlns="http://www.w3.org/2000/svg" width="66" height="15" viewBox="0 0 66 15" fill="none">
  <path d="M9.00623 3.26061H6.27694C6.29904 3.62157 6.42243 3.95674 6.64711 4.26613C6.87179 4.57552 7.21065 4.84808 7.66369 5.08381C8.11672 5.31954 8.68578 5.49449 9.37087 5.60867L8.49241 7.32138C7.71525 7.1851 7.04858 6.95858 6.49241 6.64182C5.93993 6.32506 5.49978 5.93464 5.17197 5.47055C4.84416 5.98621 4.39665 6.42083 3.82943 6.77442C3.26589 7.12801 2.57897 7.38031 1.76866 7.53133L0.85153 5.79652C1.55135 5.67497 2.13146 5.48897 2.59186 5.23851C3.05227 4.98436 3.39481 4.68786 3.61949 4.34901C3.84416 4.01015 3.96939 3.64735 3.99518 3.26061H1.26589V1.54238H4.0228V0.188785H6.27142V1.54238H9.00623V3.26061ZM0.995177 8.01751C2.5937 8.01751 4.10015 7.99173 5.51451 7.94017C6.92888 7.8886 8.25669 7.78547 9.49794 7.63077L9.65263 9.24956C8.60291 9.43004 7.46847 9.56816 6.24932 9.66392V14.0451H4.0007V9.78547C3.09831 9.81494 1.99702 9.82967 0.696834 9.82967L0.431641 8.01751H0.995177ZM10.299 0.177734H12.5421V14.4816H10.299V0.177734Z" fill="#191F28"/>
  <path d="M19.1237 11.4169H25.6407V14.0009H15.7227V11.4169L22.1827 3.28494H16.0267V0.700938H25.5837L25.6027 3.28494L19.1237 11.4169Z" fill="#191F28"/>
  <path d="M33.7009 0.472939C37.6149 0.472939 40.6359 3.43694 40.6359 7.35094C40.6359 11.2649 37.6149 14.2289 33.7009 14.2289C29.7869 14.2289 26.7849 11.2649 26.7849 7.35094C26.7849 3.43694 29.7869 0.472939 33.7009 0.472939ZM33.7009 3.05694C31.3069 3.05694 29.5209 4.86194 29.5209 7.35094C29.5209 9.83994 31.3069 11.6449 33.7009 11.6449C36.0949 11.6449 37.8809 9.83994 37.8809 7.35094C37.8809 4.86194 36.0949 3.05694 33.7009 3.05694Z" fill="#191F28"/>
  <path d="M51.5098 0.700938H54.2268V14.0009H51.0918L45.3158 4.69094L45.5628 8.43394V14.0009H42.8458V0.700938H45.9618L51.7568 10.0109L51.5098 6.26794V0.700938Z" fill="#191F28"/>
  <path d="M65.9538 3.28494H59.7408V5.96394H65.4408V8.54794H59.7408V11.4169H65.9538V14.0009H57.0238V0.700938H65.9538V3.28494Z" fill="#191F28"/>
</svg>