<svg width="66" height="28" viewBox="0 0 66 28" fill="none" xmlns="http://www.w3.org/2000/svg">
<path d="M9.00623 10.2606H6.27694C6.29904 10.6216 6.42243 10.9567 6.64711 11.2661C6.87179 11.5755 7.21065 11.8481 7.66369 12.0838C8.11672 12.3195 8.68578 12.4945 9.37087 12.6087L8.49241 14.3214C7.71525 14.1851 7.04858 13.9586 6.49241 13.6418C5.93993 13.3251 5.49978 12.9346 5.17197 12.4706C4.84416 12.9862 4.39665 13.4208 3.82943 13.7744C3.26589 14.128 2.57897 14.3803 1.76866 14.5313L0.85153 12.7965C1.55135 12.675 2.13146 12.489 2.59186 12.2385C3.05227 11.9844 3.39481 11.6879 3.61949 11.349C3.84416 11.0101 3.96939 10.6473 3.99518 10.2606H1.26589V8.54238H4.0228V7.18878H6.27142V8.54238H9.00623V10.2606ZM0.995177 15.0175C2.5937 15.0175 4.10015 14.9917 5.51451 14.9402C6.92888 14.8886 8.25669 14.7855 9.49794 14.6308L9.65263 16.2496C8.60291 16.43 7.46847 16.5682 6.24932 16.6639V21.0451H4.0007V16.7855C3.09831 16.8149 1.99702 16.8297 0.696834 16.8297L0.431641 15.0175H0.995177ZM10.299 7.17773H12.5421V21.4816H10.299V7.17773Z" fill="#4580F7"/>
<path d="M19.1237 18.4169H25.6407V21.0009H15.7227V18.4169L22.1827 10.2849H16.0267V7.70094H25.5837L25.6027 10.2849L19.1237 18.4169Z" fill="#4580F7"/>
<path d="M33.7009 7.47294C37.6149 7.47294 40.6359 10.4369 40.6359 14.3509C40.6359 18.2649 37.6149 21.2289 33.7009 21.2289C29.7869 21.2289 26.7849 18.2649 26.7849 14.3509C26.7849 10.4369 29.7869 7.47294 33.7009 7.47294ZM33.7009 10.0569C31.3069 10.0569 29.5209 11.8619 29.5209 14.3509C29.5209 16.8399 31.3069 18.6449 33.7009 18.6449C36.0949 18.6449 37.8809 16.8399 37.8809 14.3509C37.8809 11.8619 36.0949 10.0569 33.7009 10.0569Z" fill="#4580F7"/>
<path d="M51.5098 7.70094H54.2268V21.0009H51.0918L45.3158 11.6909L45.5628 15.4339V21.0009H42.8458V7.70094H45.9618L51.7568 17.0109L51.5098 13.2679V7.70094Z" fill="#4580F7"/>
<path d="M65.9538 10.2849H59.7408V12.9639H65.4408V15.5479H59.7408V18.4169H65.9538V21.0009H57.0238V7.70094H65.9538V10.2849Z" fill="#4580F7"/>
</svg>
