<svg width="25" height="24" viewBox="0 0 25 24" fill="none" xmlns="http://www.w3.org/2000/svg">
<circle cx="12.5" cy="12" r="12" fill="#4580F7"/>
<path d="M13.25 6.75C13.25 6.33579 12.9142 6 12.5 6C12.0858 6 11.75 6.33579 11.75 6.75L11.75 11.25H7.25C6.83579 11.25 6.5 11.5858 6.5 12C6.5 12.4142 6.83579 12.75 7.25 12.75H11.75L11.75 17.25C11.75 17.6642 12.0858 18 12.5 18C12.9142 18 13.25 17.6642 13.25 17.25L13.25 12.75H17.75C18.1642 12.75 18.5 12.4142 18.5 12C18.5 11.5858 18.1642 11.25 17.75 11.25H13.25L13.25 6.75Z" fill="white" stroke="white" stroke-width="0.5" stroke-linecap="round" stroke-linejoin="round"/>
</svg>
