<svg width="24" height="24" viewBox="0 0 24 24" fill="none" xmlns="http://www.w3.org/2000/svg">
<g id="plus">
<g id="wrap">
<path id="Vector" d="M13.125 4.125C13.125 3.50368 12.6213 3 12 3C11.3787 3 10.875 3.50368 10.875 4.125L10.875 10.875H4.125C3.50368 10.875 3 11.3787 3 12C3 12.6213 3.50368 13.125 4.125 13.125H10.875L10.875 19.875C10.875 20.4963 11.3787 21 12 21C12.6213 21 13.125 20.4963 13.125 19.875L13.125 13.125H19.875C20.4963 13.125 21 12.6213 21 12C21 11.3787 20.4963 10.875 19.875 10.875H13.125L13.125 4.125Z" fill="white" stroke="white" stroke-linecap="round" stroke-linejoin="round"/>
</g>
</g>
</svg>
