<svg width="25" height="24" viewBox="0 0 25 24" fill="none" xmlns="http://www.w3.org/2000/svg">
<path d="M6.52941 7.20588C6.52941 5.9578 7.02521 4.76084 7.90773 3.87832C8.79026 2.9958 9.98722 2.5 11.2353 2.5C12.4834 2.5 13.6803 2.9958 14.5629 3.87832C15.4454 4.76084 15.9412 5.9578 15.9412 7.20588C15.9412 8.45396 15.4454 9.65092 14.5629 10.5334C13.6803 11.416 12.4834 11.9118 11.2353 11.9118C9.98722 11.9118 8.79026 11.416 7.90773 10.5334C7.02521 9.65092 6.52941 8.45396 6.52941 7.20588ZM3 15.4412C3 14.1318 4.06235 13.0882 5.36353 13.0882H12.7141C11.7563 14.2464 11.2332 15.7029 11.2353 17.2059C11.2353 18.7388 11.7682 20.1471 12.6588 21.2565C12.1937 21.3012 11.7192 21.3235 11.2353 21.3235C9.05294 21.3235 7.02 20.8694 5.51176 19.9082C3.98 18.9318 3 17.4294 3 15.4412ZM23 17.2059C23 18.61 22.4422 19.9565 21.4494 20.9494C20.4565 21.9422 19.11 22.5 17.7059 22.5C16.3018 22.5 14.9552 21.9422 13.9624 20.9494C12.9695 19.9565 12.4118 18.61 12.4118 17.2059C12.4118 15.8018 12.9695 14.4552 13.9624 13.4624C14.9552 12.4695 16.3018 11.9118 17.7059 11.9118C19.11 11.9118 20.4565 12.4695 21.4494 13.4624C22.4422 14.4552 23 15.8018 23 17.2059ZM19.8871 15.8576C19.9975 15.7472 20.0596 15.5974 20.0596 15.4412C20.0596 15.285 19.9975 15.1352 19.8871 15.0247C19.7766 14.9143 19.6268 14.8522 19.4706 14.8522C19.3144 14.8522 19.1646 14.9143 19.0541 15.0247L17.7059 16.3741L16.3576 15.0247C16.2472 14.9143 16.0974 14.8522 15.9412 14.8522C15.785 14.8522 15.6352 14.9143 15.5247 15.0247C15.4143 15.1352 15.3522 15.285 15.3522 15.4412C15.3522 15.5974 15.4143 15.7472 15.5247 15.8576L16.8741 17.2059L15.5247 18.5541C15.47 18.6088 15.4266 18.6737 15.397 18.7452C15.3674 18.8167 15.3522 18.8932 15.3522 18.9706C15.3522 19.0479 15.3674 19.1245 15.397 19.196C15.4266 19.2674 15.47 19.3324 15.5247 19.3871C15.5794 19.4417 15.6443 19.4851 15.7158 19.5147C15.7872 19.5443 15.8638 19.5596 15.9412 19.5596C16.0185 19.5596 16.0951 19.5443 16.1666 19.5147C16.238 19.4851 16.303 19.4417 16.3576 19.3871L17.7059 18.0376L19.0541 19.3871C19.1088 19.4417 19.1737 19.4851 19.2452 19.5147C19.3167 19.5443 19.3932 19.5596 19.4706 19.5596C19.5479 19.5596 19.6245 19.5443 19.696 19.5147C19.7674 19.4851 19.8324 19.4417 19.8871 19.3871C19.9417 19.3324 19.9851 19.2674 20.0147 19.196C20.0443 19.1245 20.0596 19.0479 20.0596 18.9706C20.0596 18.8932 20.0443 18.8167 20.0147 18.7452C19.9851 18.6737 19.9417 18.6088 19.8871 18.5541L18.5376 17.2059L19.8871 15.8576Z" fill="#6B7684"/>
</svg>
