<svg width="20" height="20" viewBox="0 0 20 20" fill="none" xmlns="http://www.w3.org/2000/svg">
<path fill-rule="evenodd" clip-rule="evenodd" d="M11.779 0.151276C11.409 -4.0446e-08 10.939 0 10.0001 0C9.06108 0 8.59209 -4.0446e-08 8.2211 0.151276C7.72857 0.352524 7.33651 0.740224 7.13113 1.22912C7.03714 1.45106 7.00114 1.71081 6.98614 2.08801C6.97947 2.36131 6.90287 2.62839 6.76359 2.86402C6.62431 3.09964 6.42694 3.29601 6.19016 3.43457C5.94891 3.56803 5.67772 3.63874 5.40171 3.64013C5.1257 3.64152 4.8538 3.57355 4.6112 3.44253C4.27321 3.26538 4.02822 3.16784 3.78623 3.136C3.25679 3.06681 2.72133 3.20845 2.29627 3.53011C1.97828 3.77096 1.74328 4.17303 1.27429 4.97619C0.804307 5.77935 0.570314 6.18043 0.517315 6.57355C0.447317 7.09704 0.591313 7.62651 0.917304 8.0455C1.0653 8.23659 1.27429 8.39682 1.59729 8.59786C2.07427 8.89345 2.38026 9.39704 2.38026 9.95238C2.38026 10.5077 2.07427 11.0113 1.59829 11.3059C1.27429 11.5079 1.0653 11.6682 0.916304 11.8593C0.755391 12.0662 0.637281 12.3028 0.568798 12.5555C0.500315 12.8081 0.482817 13.0718 0.517315 13.3312C0.570314 13.7233 0.804307 14.1254 1.27429 14.9286C1.74428 15.7317 1.97828 16.1328 2.29627 16.3747C2.72025 16.6961 3.25624 16.8374 3.78623 16.7688C4.02822 16.7369 4.27321 16.6394 4.6112 16.4622C4.85392 16.331 5.126 16.263 5.40221 16.2644C5.67841 16.2658 5.94979 16.3366 6.19116 16.4702C6.67715 16.7489 6.96514 17.2614 6.98614 17.8168C7.00114 18.1949 7.03714 18.4537 7.13113 18.6756C7.33513 19.1633 7.72712 19.5515 8.2211 19.7535C8.59109 19.9048 9.06108 19.9048 10.0001 19.9048C10.939 19.9048 11.409 19.9048 11.779 19.7535C12.2715 19.5522 12.6636 19.1645 12.869 18.6756C12.963 18.4537 12.999 18.1949 13.014 17.8168C13.034 17.2614 13.323 16.7479 13.81 16.4702C14.0512 16.3367 14.3224 16.266 14.5984 16.2646C14.8744 16.2632 15.1463 16.3312 15.3889 16.4622C15.7269 16.6394 15.9719 16.7369 16.2139 16.7688C16.7439 16.8384 17.2799 16.6961 17.7038 16.3747C18.0218 16.1338 18.2568 15.7317 18.7258 14.9286C19.1958 14.1254 19.4298 13.7243 19.4828 13.3312C19.5172 13.0717 19.4995 12.808 19.4308 12.5554C19.3622 12.3027 19.2439 12.0661 19.0828 11.8593C18.9348 11.6682 18.7258 11.5079 18.4028 11.3069C17.9258 11.0113 17.6198 10.5077 17.6198 9.95238C17.6198 9.39704 17.9258 8.89345 18.4018 8.59886C18.7258 8.39682 18.9348 8.23659 19.0838 8.0455C19.2447 7.83855 19.3628 7.60192 19.4313 7.34927C19.4998 7.09662 19.5173 6.83297 19.4828 6.57355C19.4298 6.18142 19.1958 5.77935 18.7258 4.97619C18.2558 4.17303 18.0218 3.77195 17.7038 3.53011C17.2788 3.20845 16.7433 3.06681 16.2139 3.136C15.9719 3.16784 15.7269 3.26538 15.3889 3.44253C15.1462 3.57373 14.8741 3.64179 14.5979 3.6404C14.3217 3.63901 14.0503 3.56821 13.809 3.43457C13.5724 3.29589 13.3752 3.09946 13.2361 2.86385C13.097 2.62823 13.0205 2.36121 13.014 2.08801C12.999 1.70982 12.963 1.45106 12.869 1.22912C12.7673 0.987013 12.6188 0.767212 12.4317 0.582272C12.2447 0.397332 12.0229 0.250877 11.779 0.151276ZM10.0001 12.9381C11.67 12.9381 13.023 11.6015 13.023 9.95238C13.023 8.30327 11.669 6.96667 10.0001 6.96667C8.3301 6.96667 6.97714 8.30327 6.97714 9.95238C6.97714 11.6015 8.3311 12.9381 10.0001 12.9381Z" fill="white"/>
</svg>
