<svg width="88" height="88" viewBox="0 0 88 88" fill="none" xmlns="http://www.w3.org/2000/svg">
<g id="ic_heart_88px">
<rect x="1" y="1" width="86" height="86" rx="43" fill="white"/>
<rect x="1" y="1" width="86" height="86" rx="43" stroke="#D1D6DB" stroke-width="2"/>
<path id="Vector" d="M61.775 37.8484C61.0374 34.104 58.0689 31.0436 54.3268 30.2335C50.0449 29.3154 46.0869 31.1876 43.964 34.392C41.8591 31.1876 37.9191 29.3154 33.6193 30.2335C29.8952 31.0436 26.9087 34.104 26.189 37.8484C25.4514 41.6648 26.9626 44.9412 29.1575 47.8036C30.57 49.6455 36.3112 55.2971 40.2249 59.0923C42.3327 61.1363 45.6673 61.1363 47.7751 59.0923C51.6888 55.2971 57.43 49.6455 58.8425 47.8036C61.0374 44.9412 62.5486 41.6648 61.811 37.8484H61.775Z" fill="#ED615A"/>
</g>
</svg>
