<svg width="24" height="24" viewBox="0 0 24 24" fill="none" xmlns="http://www.w3.org/2000/svg">
<path fill-rule="evenodd" clip-rule="evenodd" d="M12 22C17.5228 22 22 17.5228 22 12C22 6.47715 17.5228 2 12 2C6.47715 2 2 6.47715 2 12C2 17.5228 6.47715 22 12 22ZM16.6839 10.7295C17.0869 10.3518 17.1073 9.71897 16.7295 9.31606C16.3518 8.91315 15.719 8.89273 15.3161 9.27046L10.6667 13.6293L8.68394 11.7705C8.28103 11.3927 7.64819 11.4131 7.27046 11.8161C6.89273 12.219 6.91315 12.8518 7.31606 13.2295L9.98273 15.7295C10.3674 16.0902 10.966 16.0902 11.3506 15.7295L16.6839 10.7295Z" fill="#78A2F7"/>
<path fill-rule="evenodd" clip-rule="evenodd" d="M9.29878 15.0883L7.3169 13.2303L7.31606 13.2295C6.91315 12.8518 6.89273 12.219 7.27046 11.8161C7.64819 11.4131 8.28103 11.3927 8.68394 11.7705L8.68481 11.7713L10.6667 13.6293L15.3161 9.27046C15.719 8.89273 16.3518 8.91315 16.7295 9.31606C17.1073 9.71897 17.0869 10.3518 16.6839 10.7295L12.0345 15.0883L12.0332 15.0896L11.3506 15.7295C10.966 16.0902 10.3674 16.0902 9.98273 15.7295L9.29878 15.0883ZM22 12C22 17.5228 17.5228 22 12 22C6.47715 22 2 17.5228 2 12C2 6.47715 6.47715 2 12 2C17.5228 2 22 6.47715 22 12Z" fill="#78A2F7"/>
</svg>
