<svg width="100" height="100" viewBox="0 0 100 100" fill="none" xmlns="http://www.w3.org/2000/svg">
<circle cx="50" cy="50" r="49" fill="#E5E8EB" stroke="#D1D6DB" stroke-width="2"/>
<path d="M48.8627 33.6684C45.9238 34.2874 43.2288 35.7403 41.1045 37.8508C39.8476 39.0957 38.8199 40.5422 38.0615 42.1243C37.0555 41.8405 35.9937 41.6886 34.8961 41.6886C28.5095 41.6886 23.332 46.8323 23.332 53.1775C23.332 59.5226 28.5095 64.6663 34.8961 64.6663C35.0134 64.6663 35.1302 64.6646 35.2466 64.6612V64.6663H69.5884V64.6595C74.2644 64.4768 77.9987 60.653 77.9987 55.9626C77.9987 51.1557 74.0764 47.2589 69.238 47.2589C68.6602 47.2589 68.0955 47.3145 67.5489 47.4206C67.3057 44.6416 66.3079 41.9764 64.6572 39.7113C62.8953 37.2938 60.4652 35.4361 57.6617 34.3634C54.8582 33.2908 51.8016 33.0494 48.8627 33.6684Z" fill="#B0B8C1"/>
<ellipse cx="50.9987" cy="56.3327" rx="1.66667" ry="1.66667" fill="#4E5968"/>
<ellipse cx="50.9987" cy="56.3327" rx="1.66667" ry="1.66667" fill="black" fill-opacity="0.2"/>
<path d="M52.6654 45.6667V51.6219C52.6658 51.6368 52.6654 51.6517 52.6654 51.6667C52.6654 52.5871 51.9192 53.3333 50.9987 53.3333C50.0782 53.3333 49.332 52.5871 49.332 51.6667C49.332 51.6517 49.3322 51.6368 49.3326 51.6219L49.332 45.6667C49.332 44.7462 50.0782 44 50.9987 44C51.9192 44 52.6654 44.7462 52.6654 45.6667Z" fill="#4E5968"/>
<path d="M52.6654 45.6667V51.6219C52.6658 51.6368 52.6654 51.6517 52.6654 51.6667C52.6654 52.5871 51.9192 53.3333 50.9987 53.3333C50.0782 53.3333 49.332 52.5871 49.332 51.6667C49.332 51.6517 49.3322 51.6368 49.3326 51.6219L49.332 45.6667C49.332 44.7462 50.0782 44 50.9987 44C51.9192 44 52.6654 44.7462 52.6654 45.6667Z" fill="black" fill-opacity="0.2"/>
</svg>
