<svg width="150" height="150" viewBox="0 0 150 150" fill="none" xmlns="http://www.w3.org/2000/svg">
<circle cx="75" cy="75" r="74" fill="#E5E8EB" stroke="#D1D6DB" stroke-width="2"/>
<path fill-rule="evenodd" clip-rule="evenodd" d="M86.4255 64.1082V57.1818C86.4255 50.9656 81.3863 45.9264 75.1701 45.9264C68.9539 45.9264 63.9147 50.9656 63.9147 57.1818V64.1082C63.9147 70.3244 68.9539 75.3636 75.1701 75.3636C81.3863 75.3636 86.4255 70.3244 86.4255 64.1082ZM75.1701 39C65.1286 39 56.9883 47.1403 56.9883 57.1818V64.1082C56.9883 74.1498 65.1286 82.29 75.1701 82.29C85.2116 82.29 93.3519 74.1498 93.3519 64.1082V57.1818C93.3519 47.1403 85.2116 39 75.1701 39Z" fill="#8B95A1"/>
<rect x="44" y="63.9746" width="62.3377" height="43.29" rx="8" fill="#B0B8C1"/>
<circle cx="61.2087" cy="85.6189" r="2.5974" fill="#4E5968"/>
<circle cx="61.2087" cy="85.6189" r="2.5974" fill="black" fill-opacity="0.2"/>
<circle cx="70.7869" cy="85.6189" r="2.5974" fill="#4E5968"/>
<circle cx="70.7869" cy="85.6189" r="2.5974" fill="black" fill-opacity="0.2"/>
<circle cx="80.365" cy="85.6189" r="2.5974" fill="#4E5968"/>
<circle cx="80.365" cy="85.6189" r="2.5974" fill="black" fill-opacity="0.2"/>
<circle cx="89.9451" cy="85.6189" r="2.5974" fill="#4E5968"/>
<circle cx="89.9451" cy="85.6189" r="2.5974" fill="black" fill-opacity="0.2"/>
</svg>
