<svg width="32" height="32" viewBox="0 0 32 32" fill="none" xmlns="http://www.w3.org/2000/svg">
<path fill-rule="evenodd" clip-rule="evenodd" d="M16 26.2167C22.6274 26.2167 28 21.2433 28 15.1083C28 8.97337 22.6274 4 16 4C9.37258 4 4 8.97337 4 15.1083C4 17.6123 4.89495 19.9227 6.4049 21.7805C6.49235 21.888 6.53432 22.026 6.51794 22.1636L5.96973 26.7715C5.8753 27.5652 6.70116 28.1451 7.41259 27.7847L11.6644 25.6305C11.7846 25.5696 11.9241 25.5602 12.0523 25.6016C13.2886 26.0001 14.617 26.2167 16 26.2167Z" fill="#A3E0C8"/>
<circle cx="11.0275" cy="14.8859" r="1.45714" fill="#00915C"/>
<circle cx="16.17" cy="14.8859" r="1.45714" fill="#00915C"/>
<circle cx="21.3126" cy="14.8859" r="1.45714" fill="#00915C"/>
</svg>
