<svg width="72" height="32" viewBox="0 0 72 32" fill="none" xmlns="http://www.w3.org/2000/svg">
<path d="M0 8C0 3.58172 3.58172 0 8 0H64C68.4183 0 72 3.58172 72 8V16V24C72 28.4183 68.4183 32 64 32H8C3.58172 32 0 28.4183 0 24V8Z" fill="#ED615A"/>
<path d="M23.0221 22.2086H21.5573V15.8709H20.2279V21.6381H18.8115V10.1906H20.2279V14.6381H21.5573V9.86188H23.0221V22.2086ZM12.3142 18.5732C13.5905 17.8416 14.5412 16.9892 15.1664 16.0159C15.7949 15.0426 16.1655 13.9178 16.2783 12.6416H12.8847V11.4088H17.7624C17.7592 12.5884 17.6142 13.6713 17.3273 14.6575C17.0437 15.6436 16.5651 16.5573 15.8916 17.3985C15.2212 18.2396 14.3221 18.9841 13.1941 19.6319L12.3142 18.5732ZM34.7207 16.1802H33.2027V13.0622H30.7421V11.8439H33.2027V9.86188H34.7207V16.1802ZM24.3028 15.0442C24.9474 14.8476 25.4953 14.5592 25.9465 14.1789C26.4009 13.7953 26.7441 13.3522 26.9762 12.8494C27.2082 12.3467 27.3259 11.8133 27.3291 11.2493V10.2631H28.8567V11.2493C28.8535 11.765 28.9631 12.2581 29.1854 12.7286C29.4078 13.1959 29.7365 13.6116 30.1716 13.9758C30.6099 14.3368 31.1401 14.6123 31.7621 14.8025L30.9548 15.982C30.2973 15.7629 29.7269 15.4438 29.2434 15.0249C28.76 14.6059 28.3813 14.1112 28.1074 13.5407C27.8302 14.1821 27.437 14.7364 26.9278 15.2037C26.4219 15.6678 25.8127 16.0175 25.1005 16.2528L24.3028 15.0442ZM26.5798 16.7265H34.7207V19.9123H28.0929V20.8598H35.1074V22.0635H26.5991V18.7907H33.2124V17.9109H26.5798V16.7265ZM46.1243 13.4731H47.7921V14.7251H46.1243V18.2251H44.6015V9.87155H46.1243V13.4731ZM36.2189 16.7459C37.4275 16.7459 38.4653 16.7346 39.3322 16.712V15.9482C38.8746 15.8902 38.4765 15.7822 38.1381 15.6243C37.803 15.4632 37.5451 15.2569 37.3647 15.0055C37.1842 14.7541 37.0956 14.4673 37.0988 14.145C37.0956 13.7712 37.2164 13.4473 37.4613 13.1733C37.7095 12.8962 38.0576 12.6835 38.5055 12.5352C38.9567 12.387 39.4805 12.3128 40.0767 12.3128C40.6729 12.3128 41.195 12.387 41.643 12.5352C42.0942 12.6835 42.4422 12.8962 42.6872 13.1733C42.9353 13.4473 43.061 13.7712 43.0642 14.145C43.061 14.4641 42.9692 14.7493 42.7887 15.0007C42.6082 15.2488 42.352 15.4535 42.02 15.6146C41.6913 15.7758 41.3014 15.8854 40.8502 15.9434V16.6588C41.991 16.6008 43.0288 16.5106 43.9634 16.3881L44.0746 17.4517C42.9144 17.6547 41.7187 17.7868 40.4876 17.8481C39.2565 17.9061 37.8884 17.9367 36.3833 17.9399L36.2189 16.7459ZM36.538 10.8481H39.3322V9.76519H40.8502V10.8481H43.6347V11.9648H36.538V10.8481ZM37.7707 18.7569H46.1243V22.2086H44.6015V19.9413H37.7707V18.7569ZM38.5539 14.145C38.5474 14.4029 38.678 14.6059 38.9455 14.7541C39.213 14.9024 39.5836 14.9765 40.0573 14.9765C40.5408 14.9765 40.9194 14.904 41.1934 14.759C41.4673 14.6107 41.6043 14.4061 41.6043 14.145C41.6043 13.8808 41.4706 13.6809 41.2031 13.5456C40.9356 13.407 40.5601 13.3377 40.0767 13.3377C39.59 13.3377 39.213 13.407 38.9455 13.5456C38.6812 13.6842 38.5507 13.884 38.5539 14.145ZM58.6399 17.2051H57.1219V14.1837H55.0094V12.9413H57.1219V9.86188H58.6399V17.2051ZM48.2511 15.9627C48.8924 15.7436 49.4403 15.4277 49.8947 15.0152C50.3524 14.5994 50.6972 14.1289 50.9292 13.6036C51.1645 13.0783 51.2821 12.5384 51.2821 11.9841V11.8923H48.7055V10.6644H55.3864V11.8923H52.8291V11.9696C52.8291 12.482 52.9403 12.98 53.1627 13.4634C53.385 13.9436 53.7138 14.3755 54.1489 14.759C54.5872 15.1393 55.1157 15.4326 55.7345 15.6388L54.9755 16.8425C54.3052 16.6169 53.7251 16.2818 53.2352 15.837C52.7453 15.3923 52.3618 14.8702 52.0846 14.2707C51.8075 14.9443 51.4111 15.5325 50.8954 16.0352C50.3798 16.538 49.7626 16.9151 49.0439 17.1664L48.2511 15.9627ZM50.2524 19.864C50.2524 19.3741 50.42 18.9535 50.7552 18.6022C51.0936 18.2477 51.5786 17.977 52.2103 17.7901C52.842 17.6031 53.5913 17.5097 54.4582 17.5097C55.3284 17.5097 56.0793 17.6031 56.711 17.7901C57.3427 17.977 57.8277 18.2477 58.1661 18.6022C58.5045 18.9535 58.6737 19.3741 58.6737 19.864C58.6737 20.3538 58.5045 20.7744 58.1661 21.1257C57.8277 21.4802 57.3427 21.7509 56.711 21.9378C56.0793 22.1248 55.3284 22.2182 54.4582 22.2182C53.5913 22.2182 52.842 22.1248 52.2103 21.9378C51.5786 21.7509 51.0936 21.4802 50.7552 21.1257C50.42 20.7744 50.2524 20.3538 50.2524 19.864ZM51.7656 19.864C51.7623 20.2475 51.9944 20.5407 52.4617 20.7438C52.929 20.9468 53.5945 21.0451 54.4582 21.0387C55.322 21.0451 55.9875 20.9468 56.4548 20.7438C56.9253 20.5407 57.1622 20.2475 57.1654 19.864C57.1622 19.4804 56.9269 19.1872 56.4596 18.9841C55.9923 18.7811 55.3252 18.6796 54.4582 18.6796C53.5913 18.6796 52.9242 18.7811 52.4569 18.9841C51.9928 19.1872 51.7623 19.4804 51.7656 19.864Z" fill="white"/>
</svg>
